<svg width="26" height="32" viewBox="0 0 26 32" fill="none" xmlns="http://www.w3.org/2000/svg">
<path d="M8.66728 21.3335C8.06929 21.3335 7.58398 21.9308 7.58398 22.6668C7.58398 23.4028 8.06929 24.0001 8.66728 24.0001C9.26527 24.0001 9.75058 23.4028 9.75058 22.6668C9.75058 21.9308 9.26527 21.3335 8.66728 21.3335Z" fill="#67665E"/>
<path d="M17.3333 21.3335C16.7353 21.3335 16.25 21.9308 16.25 22.6668C16.25 23.4028 16.7353 24.0001 17.3333 24.0001C17.9313 24.0001 18.4166 23.4028 18.4166 22.6668C18.4166 21.9308 17.9313 21.3335 17.3333 21.3335Z" fill="#67665E"/>
<path d="M13.0002 2.66699C13.0001 2.66699 13 2.66699 12.9999 2.66699C12.9998 2.66699 12.9998 2.66699 12.9998 2.66699C12.9997 2.66699 12.9997 2.66699 12.9996 2.66699C9.41092 2.66718 6.16215 4.45677 3.81005 7.35035C3.80924 7.35135 3.80832 7.35216 3.80751 7.35316C3.80665 7.35422 3.80599 7.35535 3.80512 7.35641C1.45679 10.2484 0.00365619 14.2415 0.000558584 18.6526C0.000558584 18.6573 0 18.662 0 18.6667C0 18.6713 0.000507804 18.6757 0.000558584 18.6802C0.0030976 22.4427 1.06502 26.0075 2.97197 28.849C3.17778 29.1557 3.48404 29.3332 3.80721 29.3332H22.1921C22.5153 29.3332 22.8216 29.1557 23.0274 28.849C24.9371 26.0034 26 22.4335 26 18.6667C26 9.83049 20.1797 2.66699 13.0002 2.66699ZM21.667 26.6666H4.33238C3.15016 24.7306 2.41735 22.4378 2.22078 20H5.41659C6.01488 20 6.49989 19.4031 6.49989 18.6667C6.49989 17.9304 6.01488 17.3334 5.41659 17.3334H2.22083C2.4371 14.6519 3.2989 12.2044 4.61213 10.2291L5.3393 11.1241C5.76235 11.6448 6.44829 11.6448 6.87134 11.1241C7.2944 10.6034 7.2944 9.75918 6.87134 9.2385L6.14412 8.34346C7.74903 6.72698 9.73759 5.66619 11.9164 5.39988V9.33363C11.9164 10.07 12.4014 10.6669 12.9997 10.6669C13.598 10.6669 14.083 10.07 14.083 9.33363V5.39976C16.2618 5.66594 18.2505 6.72674 19.8555 8.34321L19.1281 9.2385C18.705 9.75918 18.705 10.6034 19.1281 11.1241C19.5511 11.6448 20.2371 11.6448 20.6601 11.1241L21.3876 10.2287C22.7012 12.2041 23.5632 14.6519 23.7795 17.3334H20.5829C19.9846 17.3334 19.4996 17.9304 19.4996 18.6667C19.4996 19.4031 19.9846 20 20.5829 20H23.7795C23.5829 22.4373 22.8496 24.7301 21.667 26.6666Z" fill="#67665E"/>
<path d="M13.1847 21.3336L16.2483 13.791L10.1211 17.5629L13.1847 21.3336Z" fill="#67665E"/>
</svg>
