<svg width="30" height="30" viewBox="0 0 30 30" fill="none" xmlns="http://www.w3.org/2000/svg">
<path d="M14.9994 0C6.71619 0 0 6.71619 0 14.9994C0 23.2825 6.71619 30 14.9994 30C23.2825 30 30 23.2825 30 14.9994C30 6.71619 23.2825 0 14.9994 0ZM18.1219 23.247C17.3498 23.5517 16.7352 23.7829 16.2743 23.9429C15.8146 24.1029 15.28 24.1829 14.6717 24.1829C13.7371 24.1829 13.0095 23.9543 12.4914 23.4984C11.9733 23.0425 11.7156 22.4648 11.7156 21.7625C11.7156 21.4895 11.7346 21.2102 11.7727 20.9257C11.8121 20.6413 11.8743 20.3213 11.9594 19.9619L12.9257 16.5486C13.0108 16.221 13.0844 15.9098 13.1429 15.6203C13.2013 15.3283 13.2292 15.0603 13.2292 14.8165C13.2292 14.3822 13.139 14.0775 12.96 13.906C12.7784 13.7346 12.4368 13.6508 11.9276 13.6508C11.6787 13.6508 11.4222 13.6876 11.1594 13.7651C10.899 13.8451 10.673 13.9175 10.4876 13.9886L10.7429 12.9371C11.3752 12.6794 11.981 12.4584 12.5587 12.2756C13.1365 12.0902 13.6825 11.9987 14.1968 11.9987C15.1251 11.9987 15.8413 12.2248 16.3454 12.6717C16.847 13.12 17.0997 13.7029 17.0997 14.419C17.0997 14.5676 17.0819 14.8292 17.0476 15.2025C17.0133 15.5771 16.9486 15.9187 16.8546 16.2324L15.8933 19.6356C15.8146 19.9086 15.7448 20.221 15.6813 20.5702C15.619 20.9194 15.5886 21.186 15.5886 21.3651C15.5886 21.8171 15.6889 22.1257 15.8921 22.2895C16.0927 22.4533 16.4444 22.5359 16.9422 22.5359C17.1771 22.5359 17.44 22.494 17.7371 22.4127C18.0317 22.3314 18.2451 22.259 18.3797 22.1968L18.1219 23.247ZM17.9517 9.43365C17.5035 9.85016 16.9638 10.0584 16.3327 10.0584C15.7029 10.0584 15.1594 9.85016 14.7073 9.43365C14.2578 9.01714 14.0305 8.51048 14.0305 7.91873C14.0305 7.32825 14.259 6.82032 14.7073 6.4C15.1594 5.97841 15.7029 5.76889 16.3327 5.76889C16.9638 5.76889 17.5048 5.97841 17.9517 6.4C18.4 6.82032 18.6248 7.32825 18.6248 7.91873C18.6248 8.51175 18.4 9.01714 17.9517 9.43365Z" fill="#67665E"/>
</svg>
