<svg width="34" height="28" viewBox="0 0 34 28" fill="none" xmlns="http://www.w3.org/2000/svg">
<path d="M19.353 3.8413L19.3537 3.84061C22.2087 1.06802 26.773 0.688166 29.761 3.08441C33.2248 5.86736 33.4 10.8264 30.3055 13.832L30.3052 13.8323L17.4561 26.3193C17.2081 26.5602 16.7862 26.5602 16.5382 26.3193L3.68978 13.833C3.68966 13.8329 3.68954 13.8327 3.68942 13.8326C3.68932 13.8325 3.68923 13.8324 3.68913 13.8323C0.600774 10.8267 0.776263 5.86732 4.23998 3.08441C7.22853 0.687695 11.7988 1.06885 14.6462 3.83957L14.648 3.8413L15.9562 5.11002L17.0005 6.12283L18.0448 5.11002L19.353 3.8413Z" stroke="white" stroke-width="3"/>
</svg>
