<svg width="27" height="31" viewBox="0 0 27 31" fill="none" xmlns="http://www.w3.org/2000/svg">
<g clip-path="url(#clip0_2552_149)">
<path d="M26.8613 22.6414C27.0105 22.447 27.0953 21.6101 26.4298 21.5464H4.11728C1.84708 21.5464 0 23.6669 0 26.2737C0 28.8798 1.84708 31.0002 4.11728 31.0002H26.4298C27.2167 30.8983 27.0083 30.0914 26.8557 29.8981C24.9351 27.4608 24.9373 25.1555 26.8613 22.6414ZM25.2453 29.681H4.11728C2.48058 29.681 1.1491 28.1525 1.1491 26.2737C1.1491 24.3948 2.48058 22.8656 4.11728 22.8656H25.261C23.9307 25.1548 23.9251 27.4389 25.2453 29.681Z" fill="#67665E"/>
<path d="M0.570196 20.2269H22.8827C25.1529 20.2269 27 18.1063 27 15.5002C27 12.8936 25.1529 10.773 22.8827 10.773H10.4005V9.45385H26.4298C27.2167 9.352 27.0083 8.54505 26.8557 8.35177C24.9351 5.91442 24.9373 3.60909 26.8613 1.09512C27.0105 0.900644 27.0953 0.0636448 26.4298 0H4.11728C1.84708 6.32653e-05 0 2.12065 0 4.72731C0 7.33346 1.84708 9.45392 4.11728 9.45392H4.85124V10.7731H0.570196C-0.0952714 10.8367 -0.0105245 11.6736 0.138692 11.8681C2.06274 14.3822 2.06495 16.6875 0.144312 19.1248C-0.00826531 19.318 -0.216716 20.125 0.570196 20.2269ZM4.11728 8.13471C2.48058 8.13471 1.1491 6.60622 1.1491 4.72731C1.1491 2.84845 2.48058 1.31933 4.11728 1.31933H25.261C23.9307 3.60852 23.9251 5.89253 25.2453 8.13477H10.4005V4.72699C10.4005 4.36246 10.1435 4.06739 9.82591 4.06739H5.42579C5.10818 4.06739 4.85124 4.36246 4.85124 4.72699V8.13471H4.11728ZM9.25136 5.38659V13.6288L7.98043 12.4855C7.87607 12.392 7.75093 12.3451 7.62585 12.3451C7.50071 12.3451 7.37557 12.392 7.27121 12.4855L6.00034 13.6288V5.38659H9.25136ZM4.85124 12.0922V14.9834C4.81796 15.5574 5.19827 16.1195 5.78037 15.5025L7.62585 13.8426L9.47127 15.5025C10.0758 16.065 10.4467 15.5356 10.4005 14.9834V12.0922H22.8827C24.5194 12.0922 25.8508 13.6214 25.8508 15.5002C25.8508 17.3791 24.5194 18.9076 22.8827 18.9076H1.75467C3.07497 16.6655 3.06929 14.3814 1.73897 12.0921H4.85124V12.0922Z" fill="#67665E"/>
</g>
<defs>
<clipPath id="clip0_2552_149">
<rect width="27" height="31" fill="white"/>
</clipPath>
</defs>
</svg>
