<svg width="30" height="30" viewBox="0 0 30 30" fill="none" xmlns="http://www.w3.org/2000/svg">
<path d="M26.6952 3.05085H19.5542C19.4982 2.41525 19.3025 1.34339 18.6323 0.655424C18.2082 0.220678 17.6703 0 17.0337 0H11.9494C11.3128 0 10.7748 0.220678 10.3508 0.655424C9.6806 1.34339 9.48484 2.41525 9.42891 3.05085H3.30535C3.02467 3.05085 2.79688 3.27814 2.79688 3.55932C2.79688 3.84051 3.02467 4.0678 3.30535 4.0678H26.6952C26.9759 4.0678 27.2037 3.84051 27.2037 3.55932C27.2037 3.27814 26.9759 3.05085 26.6952 3.05085ZM11.0809 1.36322C11.3087 1.13034 11.593 1.01695 11.9494 1.01695H17.0337C17.3901 1.01695 17.6743 1.13034 17.9021 1.36322C18.3115 1.7817 18.4757 2.51797 18.5326 3.05085H10.4509C10.5079 2.51797 10.6721 1.7817 11.0809 1.36322Z" fill="#67665E"/>
<path d="M5.31629 27.4685C5.33511 28.3441 5.88019 30.0002 7.81189 30.0002H22.1875C24.1192 30.0002 24.6643 28.3441 24.6826 27.4792L25.6146 5.08496H4.38477L5.31629 27.4685ZM24.5544 6.10191L23.6661 27.4472C23.6631 27.6043 23.5929 28.9833 22.1875 28.9833H7.81189C6.42172 28.9833 6.33833 27.6017 6.33273 27.4365L5.44494 6.10191H24.5544Z" fill="#67665E"/>
<path d="M8.8991 27.4579H21.1025C21.3832 27.4579 21.611 27.2306 21.611 26.9494C21.611 26.6682 21.3832 26.4409 21.1025 26.4409H8.8991C8.61842 26.4409 8.39062 26.6682 8.39062 26.9494C8.39062 27.2306 8.61842 27.4579 8.8991 27.4579Z" fill="#67665E"/>
<path d="M8.8991 24.9154H21.1025C21.3832 24.9154 21.611 24.6881 21.611 24.4069C21.611 24.1257 21.3832 23.8984 21.1025 23.8984H8.8991C8.61842 23.8984 8.39062 24.1257 8.39062 24.4069C8.39062 24.6881 8.61842 24.9154 8.8991 24.9154Z" fill="#67665E"/>
<path d="M8.8991 22.3729H21.1025C21.3832 22.3729 21.611 22.1456 21.611 21.8644C21.611 21.5832 21.3832 21.356 21.1025 21.356H8.8991C8.61842 21.356 8.39062 21.5832 8.39062 21.8644C8.39062 22.1456 8.61842 22.3729 8.8991 22.3729Z" fill="#67665E"/>
</svg>
